<svg width="35" height="35" viewBox="0 0 35 35" fill="none" xmlns="http://www.w3.org/2000/svg">
<mask id="mask0_922_1776" style="mask-type:alpha" maskUnits="userSpaceOnUse" x="0" y="0" width="35" height="35">
<rect width="35" height="35" fill="#D9D9D9"/>
</mask>
<g mask="url(#mask0_922_1776)">
<path d="M27.7084 11.667C26.4931 11.667 25.4602 11.2416 24.6095 10.391C23.7588 9.54026 23.3334 8.50727 23.3334 7.29199C23.3334 6.07671 23.7588 5.04373 24.6095 4.19303C25.4602 3.34234 26.4931 2.91699 27.7084 2.91699C28.9237 2.91699 29.9567 3.34234 30.8074 4.19303C31.6581 5.04373 32.0834 6.07671 32.0834 7.29199C32.0834 8.50727 31.6581 9.54026 30.8074 10.391C29.9567 11.2416 28.9237 11.667 27.7084 11.667ZM5.83341 29.167C5.03133 29.167 4.3447 28.8814 3.77352 28.3102C3.20234 27.739 2.91675 27.0524 2.91675 26.2503V8.75033C2.91675 7.94824 3.20234 7.26161 3.77352 6.69043C4.3447 6.11925 5.03133 5.83366 5.83341 5.83366H20.5626C20.4654 6.31977 20.4167 6.80588 20.4167 7.29199C20.4167 7.7781 20.4654 8.26421 20.5626 8.75033C20.7327 9.5281 21.0122 10.2512 21.4011 10.9196C21.79 11.588 22.264 12.1774 22.823 12.6878L17.5001 16.042L5.83341 8.75033V11.667L17.5001 18.9587L25.1928 14.1462C25.606 14.292 26.0192 14.4014 26.4324 14.4743C26.8456 14.5472 27.2709 14.5837 27.7084 14.5837C28.4862 14.5837 29.2518 14.4621 30.0053 14.2191C30.7588 13.976 31.4515 13.6114 32.0834 13.1253V26.2503C32.0834 27.0524 31.7978 27.739 31.2266 28.3102C30.6555 28.8814 29.9688 29.167 29.1667 29.167H5.83341Z" fill="url(#paint0_linear_922_1776)"/>
</g>
<defs>
<linearGradient id="paint0_linear_922_1776" x1="4.37508" y1="3.62773" x2="35.8626" y2="21.9753" gradientUnits="userSpaceOnUse">
<stop stop-color="#FEDEF3"/>
<stop offset="0.5" stop-color="#EADAFF"/>
<stop offset="1" stop-color="#B6E9FF"/>
</linearGradient>
</defs>
</svg>
