<svg width="20" height="20" viewBox="0 0 20 20" fill="none" xmlns="http://www.w3.org/2000/svg">
<mask id="mask0_458_2409" style="mask-type:alpha" maskUnits="userSpaceOnUse" x="0" y="0" width="20" height="20">
<rect width="20" height="20" fill="#D9D9D9"/>
</mask>
<g mask="url(#mask0_458_2409)">
<path d="M5.22439 3.25317H13.9904V13.2531L8.46156 18.7499L7.75646 18.0448C7.66993 17.9583 7.59808 17.8437 7.54092 17.701C7.48376 17.5584 7.45519 17.4241 7.45519 17.298V17.0865L8.33979 13.2531H2.75646C2.36008 13.2531 2.00992 13.1012 1.70598 12.7972C1.40203 12.4933 1.25006 12.1431 1.25006 11.7467V10.4006C1.25006 10.314 1.26128 10.2206 1.28371 10.1202C1.30614 10.0197 1.33124 9.92624 1.35902 9.83969L3.74683 4.20511C3.8665 3.93801 4.06682 3.71258 4.34779 3.52882C4.62878 3.34506 4.92098 3.25317 5.22439 3.25317ZM12.7404 4.50315H5.22439C5.16563 4.50315 5.10553 4.51918 5.0441 4.55124C4.98266 4.58329 4.93591 4.63672 4.90385 4.71151L2.50002 10.3365V11.7467C2.50002 11.8215 2.52406 11.8829 2.57214 11.931C2.62023 11.9791 2.68167 12.0032 2.75646 12.0032H9.9199L8.87502 16.5705L12.7404 12.7211V4.50315ZM13.9904 13.2531V12.0032H16.6667V4.50315H13.9904V3.25317H17.9167V13.2531H13.9904Z" fill="#A8A8A8"/>
</g>
</svg>
