<svg width="20" height="20" viewBox="0 0 20 20" fill="none" xmlns="http://www.w3.org/2000/svg">
<mask id="mask0_247_562" style="mask-type:alpha" maskUnits="userSpaceOnUse" x="0" y="0" width="20" height="20">
<rect width="20" height="20" fill="#D9D9D9"/>
</mask>
<g mask="url(#mask0_247_562)">
<path d="M5.00002 11.6667H11.6667V10.0001H5.00002V11.6667ZM5.00002 9.16675H15V7.50008H5.00002V9.16675ZM5.00002 6.66675H15V5.00008H5.00002V6.66675ZM1.66669 18.3334V3.33341C1.66669 2.87508 1.82988 2.48272 2.15627 2.15633C2.48266 1.82994 2.87502 1.66675 3.33335 1.66675H16.6667C17.125 1.66675 17.5174 1.82994 17.8438 2.15633C18.1702 2.48272 18.3334 2.87508 18.3334 3.33341V13.3334C18.3334 13.7917 18.1702 14.1841 17.8438 14.5105C17.5174 14.8369 17.125 15.0001 16.6667 15.0001H5.00002L1.66669 18.3334ZM4.29169 13.3334H16.6667V3.33341H3.33335V14.2709L4.29169 13.3334Z" fill="#B9B9B9"/>
</g>
</svg>
