<svg width="56" height="56" viewBox="0 0 56 56" fill="none" xmlns="http://www.w3.org/2000/svg">
<mask id="mask0_358_1815" style="mask-type:alpha" maskUnits="userSpaceOnUse" x="0" y="0" width="56" height="56">
<rect x="0.5" y="0.5" width="55" height="55" fill="#CFCFCF" stroke="black"/>
</mask>
<g mask="url(#mask0_358_1815)">
<path d="M28.0001 27.4999C25.5671 27.4999 23.4967 26.6395 21.762 24.9047C20.0272 23.1699 19.1667 21.0996 19.1667 18.6666C19.1667 16.2336 20.0272 14.1632 21.762 12.4285C23.4967 10.6937 25.5671 9.83325 28.0001 9.83325C30.4331 9.83325 32.5034 10.6937 34.2382 12.4285C35.9729 14.1632 36.8334 16.2336 36.8334 18.6666C36.8334 21.0996 35.9729 23.1699 34.2382 24.9047C32.5034 26.6395 30.4331 27.4999 28.0001 27.4999ZM9.8334 46.1666V40.1333C9.8334 38.9018 10.1489 37.7773 10.7803 36.749C11.4139 35.7173 12.25 34.9359 13.2935 34.3955C15.6717 33.2068 18.0852 32.3166 20.5344 31.7234C22.9847 31.1299 25.473 30.8333 28.0001 30.8333C30.5272 30.8333 33.0154 31.1299 35.4657 31.7234C37.915 32.3166 40.3285 33.2068 42.7066 34.3956C43.7502 34.936 44.5863 35.7173 45.2198 36.749C45.8512 37.7773 46.1667 38.9018 46.1667 40.1333V46.1666H9.8334Z" fill="#CFCFCF" stroke="black"/>
</g>
</svg>
