<svg width="22" height="22" viewBox="0 0 22 22" fill="none" xmlns="http://www.w3.org/2000/svg">
<mask id="mask0_358_1842" style="mask-type:alpha" maskUnits="userSpaceOnUse" x="0" y="0" width="22" height="22">
<rect width="22" height="22" fill="white"/>
</mask>
<g mask="url(#mask0_358_1842)">
<path d="M2.74993 20.1666C2.24576 20.1666 1.81417 19.9871 1.45514 19.628C1.09611 19.269 0.916595 18.8374 0.916595 18.3333V7.33325C0.916595 6.82908 1.09611 6.39749 1.45514 6.03846C1.81417 5.67943 2.24576 5.49992 2.74993 5.49992H5.63743L7.33326 3.66659H12.8333V7.33325H15.5833V10.0833H19.2499V18.3333C19.2499 18.8374 19.0704 19.269 18.7114 19.628C18.3524 19.9871 17.9208 20.1666 17.4166 20.1666H2.74993ZM10.0833 16.9583C11.2291 16.9583 12.2031 16.5572 13.0051 15.7551C13.8072 14.953 14.2083 13.9791 14.2083 12.8333C14.2083 11.6874 13.8072 10.7135 13.0051 9.91138C12.2031 9.10929 11.2291 8.70825 10.0833 8.70825C8.93743 8.70825 7.96347 9.10929 7.16139 9.91138C6.3593 10.7135 5.95826 11.6874 5.95826 12.8333C5.95826 13.9791 6.3593 14.953 7.16139 15.7551C7.96347 16.5572 8.93743 16.9583 10.0833 16.9583ZM10.0833 15.1249C9.4416 15.1249 8.89924 14.9034 8.45618 14.4603C8.01312 14.0173 7.7916 13.4749 7.7916 12.8333C7.7916 12.1916 8.01312 11.6492 8.45618 11.2062C8.89924 10.7631 9.4416 10.5416 10.0833 10.5416C10.7249 10.5416 11.2673 10.7631 11.7103 11.2062C12.1534 11.6492 12.3749 12.1916 12.3749 12.8333C12.3749 13.4749 12.1534 14.0173 11.7103 14.4603C11.2673 14.9034 10.7249 15.1249 10.0833 15.1249ZM17.4166 7.33325V5.49992H15.5833V3.66659H17.4166V1.83325H19.2499V3.66659H21.0833V5.49992H19.2499V7.33325H17.4166Z" fill="white"/>
</g>
</svg>
