<svg width="28" height="28" viewBox="0 0 28 28" fill="none" xmlns="http://www.w3.org/2000/svg">
<mask id="mask0_501_3489" style="mask-type:alpha" maskUnits="userSpaceOnUse" x="0" y="0" width="28" height="28">
<rect width="28" height="28" fill="white"/>
</mask>
<g mask="url(#mask0_501_3489)">
<path d="M6.99998 16.3333H9.85831L16.7416 9.50825C16.8583 9.39159 16.9166 9.24575 16.9166 9.07075C16.9166 8.89575 16.8583 8.74992 16.7416 8.63325L14.7 6.59159C14.5833 6.47492 14.4375 6.41659 14.2625 6.41659C14.0875 6.41659 13.9416 6.47492 13.825 6.59159L6.99998 13.4749V16.3333ZM12.25 16.3333H21V13.9999H14.5833L12.25 16.3333ZM2.33331 25.6666V4.66659C2.33331 4.02492 2.56179 3.47561 3.01873 3.01867C3.47567 2.56172 4.02498 2.33325 4.66665 2.33325H23.3333C23.975 2.33325 24.5243 2.56172 24.9812 3.01867C25.4382 3.47561 25.6666 4.02492 25.6666 4.66659V18.6666C25.6666 19.3083 25.4382 19.8576 24.9812 20.3145C24.5243 20.7714 23.975 20.9999 23.3333 20.9999H6.99998L2.33331 25.6666ZM6.00831 18.6666H23.3333V4.66659H4.66665V19.9791L6.00831 18.6666Z" fill="white"/>
</g>
</svg>
