<svg width="46" height="13" viewBox="0 0 46 13" fill="none" xmlns="http://www.w3.org/2000/svg">
<path d="M7.152 6.556H6.54C5.928 6.556 5.688 6.568 5.328 6.616V4.804C5.772 4.864 6.036 4.876 6.828 4.876H7.62C8.196 4.876 8.616 4.864 9.108 4.816C9.048 5.272 9.024 5.644 9.024 6.376V7.684C9.024 8.464 9.036 8.812 9.108 9.34C8.316 9.82 7.848 10.024 7.164 10.204C6.588 10.36 5.88 10.456 5.244 10.456C3.696 10.456 2.448 9.952 1.644 9.016C0.912 8.14 0.492 6.784 0.492 5.308C0.492 3.268 1.332 1.648 2.796 0.844C3.468 0.46 4.296 0.279999 5.28 0.279999C6.492 0.279999 7.536 0.676 8.256 1.396C8.664 1.816 8.88 2.176 9.132 2.872L7.104 3.376C6.912 2.824 6.732 2.56 6.384 2.332C6.048 2.104 5.652 2.008 5.088 2.008C4.428 2.008 3.816 2.248 3.396 2.68C2.844 3.256 2.556 4.144 2.556 5.32C2.556 6.472 2.832 7.396 3.348 7.984C3.78 8.476 4.428 8.728 5.268 8.728C5.988 8.728 6.552 8.584 7.152 8.236V6.556ZM26.9192 11.236L28.3712 10.264C28.8032 10.828 29.4152 11.116 30.2072 11.116C30.9992 11.116 31.6232 10.876 31.9232 10.456C32.1632 10.108 32.2472 9.76 32.2952 8.944C31.7192 9.592 30.9872 9.892 29.9792 9.892C28.0112 9.892 26.7512 8.56 26.7512 6.472C26.7512 5.224 27.1952 4.252 28.0592 3.616C28.6232 3.208 29.2712 3.004 30.0512 3.004C31.0472 3.004 31.7432 3.268 32.2952 3.856C32.2832 3.76 32.2832 3.676 32.2832 3.544V3.148H34.2392C34.1672 3.688 34.1432 4.048 34.1432 4.732V8.8C34.1432 10.252 33.8192 11.152 33.0992 11.74C32.4752 12.244 31.4312 12.52 30.1832 12.52C28.6712 12.52 27.7472 12.16 26.9192 11.236ZM28.6712 6.472C28.6712 7.132 28.8392 7.636 29.1872 7.984C29.4632 8.26 29.9072 8.44 30.3152 8.44C30.6512 8.44 31.0472 8.332 31.3472 8.14C31.9112 7.804 32.2232 7.192 32.2232 6.436C32.2232 5.284 31.4432 4.444 30.3752 4.444C29.3432 4.444 28.6712 5.248 28.6712 6.472Z" fill="#47A7FF"/>
<path d="M13.9134 10.492C11.6214 10.492 10.1694 9.016 10.1694 6.7C10.1694 4.384 11.6334 2.908 13.9254 2.908C16.2174 2.908 17.6694 4.372 17.6694 6.676C17.6694 8.98 16.1814 10.492 13.9134 10.492ZM13.9374 4.42C12.7854 4.42 12.0774 5.272 12.0774 6.676C12.0774 8.092 12.7734 8.956 13.9254 8.956C15.0774 8.956 15.7614 8.116 15.7614 6.712C15.7614 5.272 15.0894 4.42 13.9374 4.42ZM45.9741 7.216H40.6941C40.7541 7.78 40.8621 8.08 41.1021 8.38C41.4261 8.776 41.8941 8.98 42.4701 8.98C43.3101 8.98 43.8861 8.584 44.1381 7.852L45.8781 8.368C45.6141 8.944 45.4341 9.22 45.1101 9.532C44.4741 10.168 43.5621 10.504 42.4701 10.504C41.3901 10.504 40.4901 10.18 39.8661 9.556C39.1821 8.884 38.8101 7.864 38.8101 6.7C38.8101 4.42 40.2381 2.908 42.3981 2.908C43.9701 2.908 45.1101 3.676 45.6261 5.056C45.8421 5.644 45.9021 6.028 45.9501 6.928C45.9501 6.976 45.9501 6.988 45.9741 7.216ZM40.7301 5.824H44.0541C43.9821 5.44 43.8981 5.224 43.7181 4.984C43.4301 4.612 42.9741 4.408 42.4221 4.408C41.5341 4.408 40.9581 4.888 40.7301 5.824Z" fill="#FF4545"/>
<path d="M22.2103 10.492C19.9183 10.492 18.4663 9.016 18.4663 6.7C18.4663 4.384 19.9303 2.908 22.2223 2.908C24.5143 2.908 25.9663 4.372 25.9663 6.676C25.9663 8.98 24.4783 10.492 22.2103 10.492ZM22.2343 4.42C21.0823 4.42 20.3743 5.272 20.3743 6.676C20.3743 8.092 21.0703 8.956 22.2223 8.956C23.3743 8.956 24.0583 8.116 24.0583 6.712C24.0583 5.272 23.3863 4.42 22.2343 4.42Z" fill="#FFBE5C"/>
<path d="M35.6179 0.495999H37.7179C37.6579 0.976 37.6339 1.408 37.6339 2.176V8.572C37.6339 9.256 37.6579 9.688 37.7179 10.252H35.6179C35.6899 9.724 35.7139 9.364 35.7139 8.572V2.176C35.7139 1.396 35.6899 0.964 35.6179 0.495999Z" fill="#2CD151"/>
</svg>
