<svg width="20" height="20" viewBox="0 0 20 20" fill="none" xmlns="http://www.w3.org/2000/svg">
<mask id="mask0_458_2461" style="mask-type:alpha" maskUnits="userSpaceOnUse" x="0" y="0" width="20" height="20">
<rect width="20" height="20" fill="#0099FF"/>
</mask>
<g mask="url(#mask0_458_2461)">
<path d="M4.99998 2.5H13.3333V13.3333L7.49998 19.1667L6.45831 18.125C6.36109 18.0278 6.28123 17.8958 6.21873 17.7292C6.15623 17.5625 6.12498 17.4028 6.12498 17.25V16.9583L7.04165 13.3333H2.49998C2.05554 13.3333 1.66665 13.1667 1.33331 12.8333C0.99998 12.5 0.833313 12.1111 0.833313 11.6667V10C0.833313 9.90278 0.84373 9.79861 0.864563 9.6875C0.885396 9.57639 0.916646 9.47222 0.958313 9.375L3.45831 3.5C3.58331 3.22222 3.79165 2.98611 4.08331 2.79167C4.37498 2.59722 4.68054 2.5 4.99998 2.5ZM15 13.3333V2.5H18.3333V13.3333H15Z" fill="#7DD8FF"/>
</g>
</svg>
