<svg width="20" height="20" viewBox="0 0 20 20" fill="none" xmlns="http://www.w3.org/2000/svg">
<mask id="mask0_458_2418" style="mask-type:alpha" maskUnits="userSpaceOnUse" x="0" y="0" width="20" height="20">
<rect width="20" height="20" fill="#D9D9D9"/>
</mask>
<g mask="url(#mask0_458_2418)">
<path d="M15 17.4999H6.66669V6.66658L12.5 0.833252L13.5417 1.87492C13.6389 1.97214 13.7188 2.10409 13.7813 2.27075C13.8438 2.43742 13.875 2.59714 13.875 2.74992V3.04159L12.9584 6.66658H17.5C17.9445 6.66658 18.3334 6.83325 18.6667 7.16658C19 7.49992 19.1667 7.88881 19.1667 8.33325V9.99992C19.1667 10.0971 19.1563 10.2013 19.1354 10.3124C19.1146 10.4235 19.0834 10.5277 19.0417 10.6249L16.5417 16.4999C16.4167 16.7777 16.2084 17.0138 15.9167 17.2083C15.625 17.4027 15.3195 17.4999 15 17.4999ZM5.00002 6.66658V17.4999H1.66669V6.66658H5.00002Z" fill="#FF7E7E"/>
</g>
</svg>
