<svg width="25" height="25" viewBox="0 0 25 25" fill="none" xmlns="http://www.w3.org/2000/svg">
<mask id="mask0_468_1967" style="mask-type:alpha" maskUnits="userSpaceOnUse" x="0" y="0" width="25" height="25">
<rect width="25" height="25" fill="#D9D9D9"/>
</mask>
<g mask="url(#mask0_468_1967)">
<path d="M9.16667 21.875H5.20833C4.63542 21.875 4.14497 21.671 3.73698 21.263C3.32899 20.855 3.125 20.3646 3.125 19.7917V15.8333C3.95833 15.8333 4.6875 15.5686 5.3125 15.0391C5.9375 14.5095 6.25 13.8368 6.25 13.0208C6.25 12.2049 5.9375 11.5321 5.3125 11.0026C4.6875 10.4731 3.95833 10.2083 3.125 10.2083V6.25C3.125 5.67708 3.32899 5.18663 3.73698 4.77865C4.14497 4.37066 4.63542 4.16667 5.20833 4.16667H9.375C9.375 3.4375 9.62674 2.82118 10.1302 2.31771C10.6337 1.81424 11.25 1.5625 11.9792 1.5625C12.7083 1.5625 13.3247 1.81424 13.8281 2.31771C14.3316 2.82118 14.5833 3.4375 14.5833 4.16667H18.75C19.3229 4.16667 19.8134 4.37066 20.2214 4.77865C20.6293 5.18663 20.8333 5.67708 20.8333 6.25V10.4167C21.5625 10.4167 22.1788 10.6684 22.6823 11.1719C23.1858 11.6753 23.4375 12.2917 23.4375 13.0208C23.4375 13.75 23.1858 14.3663 22.6823 14.8698C22.1788 15.3733 21.5625 15.625 20.8333 15.625V19.7917C20.8333 20.3646 20.6293 20.855 20.2214 21.263C19.8134 21.671 19.3229 21.875 18.75 21.875H14.7917C14.7917 21.0069 14.5182 20.2691 13.9714 19.6615C13.4245 19.0538 12.7604 18.75 11.9792 18.75C11.1979 18.75 10.5339 19.0538 9.98698 19.6615C9.4401 20.2691 9.16667 21.0069 9.16667 21.875ZM5.20833 19.7917H7.42188C7.83854 18.6458 8.50694 17.8385 9.42708 17.3698C10.3472 16.901 11.1979 16.6667 11.9792 16.6667C12.7604 16.6667 13.6111 16.901 14.5312 17.3698C15.4514 17.8385 16.1198 18.6458 16.5365 19.7917H18.75V13.5417H20.8333C20.9722 13.5417 21.0938 13.4896 21.1979 13.3854C21.3021 13.2812 21.3542 13.1597 21.3542 13.0208C21.3542 12.8819 21.3021 12.7604 21.1979 12.6562C21.0938 12.5521 20.9722 12.5 20.8333 12.5H18.75V6.25H12.5V4.16667C12.5 4.02778 12.4479 3.90625 12.3438 3.80208C12.2396 3.69792 12.1181 3.64583 11.9792 3.64583C11.8403 3.64583 11.7188 3.69792 11.6146 3.80208C11.5104 3.90625 11.4583 4.02778 11.4583 4.16667V6.25H5.20833V8.54167C6.14583 8.88889 6.90104 9.47049 7.47396 10.2865C8.04688 11.1024 8.33333 12.0139 8.33333 13.0208C8.33333 14.0104 8.04688 14.9132 7.47396 15.7292C6.90104 16.5451 6.14583 17.1354 5.20833 17.5V19.7917Z" fill="#C4C4C4"/>
</g>
</svg>
