<svg width="25" height="25" viewBox="0 0 25 25" fill="none" xmlns="http://www.w3.org/2000/svg">
<mask id="mask0_468_1963" style="mask-type:alpha" maskUnits="userSpaceOnUse" x="0" y="0" width="25" height="25">
<rect width="25" height="25" fill="#D9D9D9"/>
</mask>
<g mask="url(#mask0_468_1963)">
<path d="M9.11458 23.3593C8.31597 23.3593 7.59983 23.151 6.96615 22.7343C6.33247 22.3176 5.84201 21.7447 5.49479 21.0155C5.21701 21.3801 4.86545 21.6622 4.4401 21.8619C4.01476 22.0616 3.57639 22.1614 3.125 22.1614C2.23958 22.1614 1.4974 21.8576 0.898438 21.2499C0.299479 20.6423 0 19.9044 0 19.0364C0 18.2899 0.243056 17.6171 0.729167 17.0182C1.21528 16.4192 1.8316 16.0763 2.57812 15.9895C2.33507 15.6423 2.14844 15.2734 2.01823 14.8827C1.88802 14.4921 1.82292 14.0798 1.82292 13.6458C1.82292 12.9513 2.00087 12.3003 2.35677 11.6926C2.71267 11.085 3.21181 10.5902 3.85417 10.2083C3.94097 10.5208 4.05816 10.855 4.20573 11.2109C4.3533 11.5668 4.52257 11.8749 4.71354 12.1353C4.47049 12.3263 4.27951 12.5563 4.14062 12.8254C4.00174 13.0945 3.93229 13.3767 3.93229 13.6718C3.93229 14.644 4.3316 15.243 5.13021 15.4687C5.92882 15.6944 6.68403 15.8767 7.39583 16.0155L7.89062 16.8489C7.69965 17.4044 7.53472 17.8775 7.39583 18.2682C7.25694 18.6588 7.1875 19.0103 7.1875 19.3228C7.1875 19.8437 7.37413 20.2994 7.7474 20.69C8.12066 21.0806 8.57639 21.276 9.11458 21.276C9.77431 21.276 10.3212 20.9808 10.7552 20.3905C11.1892 19.8003 11.5451 19.1058 11.8229 18.3072C12.1007 17.5086 12.3134 16.7013 12.4609 15.8853C12.6085 15.0694 12.7257 14.4444 12.8125 14.0103L14.8437 14.5572C14.6875 15.3385 14.4965 16.2326 14.2708 17.2395C14.0451 18.2464 13.7283 19.2057 13.3203 20.1171C12.9123 21.0286 12.3741 21.7968 11.7057 22.4218C11.0373 23.0468 10.1736 23.3593 9.11458 23.3593ZM3.125 20.078C3.42014 20.078 3.66753 19.9782 3.86719 19.7786C4.06684 19.5789 4.16667 19.3315 4.16667 19.0364C4.16667 18.7412 4.06684 18.4938 3.86719 18.2942C3.66753 18.0945 3.42014 17.9947 3.125 17.9947C2.82986 17.9947 2.58247 18.0945 2.38281 18.2942C2.18316 18.4938 2.08333 18.7412 2.08333 19.0364C2.08333 19.3315 2.18316 19.5789 2.38281 19.7786C2.58247 19.9782 2.82986 20.078 3.125 20.078ZM10.5208 15.9635C9.72222 15.2517 8.9974 14.5876 8.34635 13.9713C7.69531 13.355 7.13542 12.756 6.66667 12.1744C6.19792 11.5928 5.83767 11.0112 5.58594 10.4296C5.3342 9.84801 5.20833 9.24471 5.20833 8.61971C5.20833 7.49124 5.59462 6.54072 6.36719 5.76815C7.13976 4.99558 8.09028 4.60929 9.21875 4.60929C9.28819 4.60929 9.34896 4.61363 9.40104 4.62231C9.45312 4.631 9.51389 4.63534 9.58333 4.63534C9.51389 4.46172 9.46181 4.28811 9.42708 4.1145C9.39236 3.94089 9.375 3.7586 9.375 3.56763C9.375 2.69957 9.67882 1.96172 10.2865 1.35409C10.8941 0.746446 11.6319 0.442627 12.5 0.442627C13.3681 0.442627 14.1059 0.746446 14.7135 1.35409C15.3212 1.96172 15.625 2.69957 15.625 3.56763C15.625 3.7586 15.6076 3.93655 15.5729 4.10148C15.5382 4.26641 15.4861 4.43568 15.4167 4.60929H15.7812C16.8229 4.60929 17.7083 4.9435 18.4375 5.6119C19.1667 6.2803 19.6007 7.10929 19.7396 8.09888C19.4271 8.04679 19.0755 8.02075 18.6849 8.02075C18.2943 8.02075 17.934 8.03811 17.6042 8.07284C17.4826 7.67353 17.2613 7.34367 16.9401 7.08325C16.6189 6.82284 16.2326 6.69263 15.7812 6.69263C15.1736 6.69263 14.7005 6.87058 14.362 7.22648C14.0234 7.58238 13.559 8.09888 12.9687 8.77596H12.0052C11.3976 8.06416 10.9245 7.53898 10.5859 7.20044C10.2474 6.8619 9.79167 6.69263 9.21875 6.69263C8.66319 6.69263 8.20312 6.87492 7.83854 7.2395C7.47396 7.60409 7.29167 8.06416 7.29167 8.61971C7.29167 9.01902 7.40451 9.43134 7.63021 9.85669C7.8559 10.282 8.17274 10.7334 8.58073 11.2109C8.98872 11.6883 9.48351 12.1961 10.0651 12.7343C10.6467 13.2725 11.2934 13.8541 12.0052 14.4791L10.5208 15.9635ZM12.5 4.60929C12.7951 4.60929 13.0425 4.50947 13.2422 4.30981C13.4418 4.11016 13.5417 3.86277 13.5417 3.56763C13.5417 3.27249 13.4418 3.02509 13.2422 2.82544C13.0425 2.62579 12.7951 2.52596 12.5 2.52596C12.2049 2.52596 11.9575 2.62579 11.7578 2.82544C11.5582 3.02509 11.4583 3.27249 11.4583 3.56763C11.4583 3.86277 11.5582 4.11016 11.7578 4.30981C11.9575 4.50947 12.2049 4.60929 12.5 4.60929ZM15.8594 23.3593C15.4774 23.3593 15.0998 23.3072 14.7266 23.203C14.3533 23.0989 13.9931 22.9339 13.6458 22.7083C13.8368 22.4652 14.0278 22.1787 14.2188 21.8489C14.4097 21.519 14.5833 21.2152 14.7396 20.9374C14.9306 21.0589 15.1215 21.1458 15.3125 21.1978C15.5035 21.2499 15.6944 21.276 15.8854 21.276C16.441 21.276 16.9054 21.0806 17.2786 20.69C17.6519 20.2994 17.8385 19.835 17.8385 19.2968C17.8385 18.9669 17.7691 18.611 17.6302 18.2291C17.4913 17.8471 17.3264 17.3784 17.1354 16.8228L17.6302 15.9895C18.3594 15.8506 19.1189 15.6683 19.9089 15.4426C20.6988 15.2169 21.0938 14.618 21.0938 13.6458C21.0938 12.9513 20.8377 12.4478 20.3255 12.1353C19.8134 11.8228 19.2535 11.6666 18.6458 11.6666C17.9167 11.6666 17.066 11.8055 16.0938 12.0833C15.1215 12.361 13.9844 12.7169 12.6823 13.151L12.1354 11.1197C13.4896 10.6857 14.6962 10.3211 15.7552 10.026C16.8142 9.73082 17.7865 9.58325 18.6719 9.58325C19.8698 9.58325 20.9201 9.93916 21.8229 10.651C22.7257 11.3628 23.1771 12.361 23.1771 13.6458C23.1771 14.0798 23.112 14.4921 22.9818 14.8827C22.8516 15.2734 22.6649 15.6423 22.4219 15.9895C23.1684 16.0763 23.7847 16.4192 24.2708 17.0182C24.7569 17.6171 25 18.2899 25 19.0364C25 19.9044 24.7005 20.6423 24.1016 21.2499C23.5026 21.8576 22.7604 22.1614 21.875 22.1614C21.4236 22.1614 20.9852 22.0616 20.5599 21.8619C20.1345 21.6622 19.783 21.3801 19.5052 21.0155C19.158 21.7447 18.6675 22.3176 18.0339 22.7343C17.4002 23.151 16.6753 23.3593 15.8594 23.3593ZM21.901 20.078C22.1962 20.078 22.4392 19.9782 22.6302 19.7786C22.8212 19.5789 22.9167 19.3315 22.9167 19.0364C22.9167 18.7412 22.8168 18.4895 22.6172 18.2812C22.4175 18.0728 22.1701 17.9687 21.875 17.9687C21.5799 17.9687 21.3325 18.0685 21.1328 18.2682C20.9332 18.4678 20.8333 18.7152 20.8333 19.0103C20.8333 19.3055 20.9375 19.5572 21.1458 19.7655C21.3542 19.9739 21.6059 20.078 21.901 20.078Z" fill="#C4C4C4"/>
</g>
</svg>
