<svg width="25" height="25" viewBox="0 0 25 25" fill="none" xmlns="http://www.w3.org/2000/svg">
<mask id="mask0_468_1960" style="mask-type:alpha" maskUnits="userSpaceOnUse" x="0" y="0" width="25" height="25">
<rect width="25" height="25" fill="#C9DCFD"/>
</mask>
<g mask="url(#mask0_468_1960)">
<path d="M0 18.75V17.1094C0 16.3628 0.381944 15.7552 1.14583 15.2865C1.90972 14.8177 2.91667 14.5833 4.16667 14.5833C4.39236 14.5833 4.60938 14.5877 4.81771 14.5964C5.02604 14.605 5.22569 14.6267 5.41667 14.6615C5.17361 15.026 4.99132 15.408 4.86979 15.8073C4.74826 16.2066 4.6875 16.6233 4.6875 17.0573V18.75H0ZM6.25 18.75V17.0573C6.25 16.5017 6.40191 15.9939 6.70573 15.5339C7.00955 15.0738 7.43924 14.6701 7.99479 14.3229C8.55035 13.9757 9.21441 13.7153 9.98698 13.5417C10.7595 13.3681 11.5972 13.2812 12.5 13.2812C13.4201 13.2812 14.2665 13.3681 15.0391 13.5417C15.8116 13.7153 16.4757 13.9757 17.0312 14.3229C17.5868 14.6701 18.0122 15.0738 18.3073 15.5339C18.6024 15.9939 18.75 16.5017 18.75 17.0573V18.75H6.25ZM20.3125 18.75V17.0573C20.3125 16.6059 20.2561 16.1806 20.1432 15.7812C20.0304 15.3819 19.8611 15.0087 19.6354 14.6615C19.8264 14.6267 20.0217 14.605 20.2214 14.5964C20.421 14.5877 20.625 14.5833 20.8333 14.5833C22.0833 14.5833 23.0903 14.8134 23.8542 15.2734C24.6181 15.7335 25 16.3455 25 17.1094V18.75H20.3125ZM4.16667 13.5417C3.59375 13.5417 3.1033 13.3377 2.69531 12.9297C2.28733 12.5217 2.08333 12.0312 2.08333 11.4583C2.08333 10.8681 2.28733 10.3733 2.69531 9.97396C3.1033 9.57465 3.59375 9.375 4.16667 9.375C4.75694 9.375 5.25174 9.57465 5.65104 9.97396C6.05035 10.3733 6.25 10.8681 6.25 11.4583C6.25 12.0312 6.05035 12.5217 5.65104 12.9297C5.25174 13.3377 4.75694 13.5417 4.16667 13.5417ZM20.8333 13.5417C20.2604 13.5417 19.77 13.3377 19.362 12.9297C18.954 12.5217 18.75 12.0312 18.75 11.4583C18.75 10.8681 18.954 10.3733 19.362 9.97396C19.77 9.57465 20.2604 9.375 20.8333 9.375C21.4236 9.375 21.9184 9.57465 22.3177 9.97396C22.717 10.3733 22.9167 10.8681 22.9167 11.4583C22.9167 12.0312 22.717 12.5217 22.3177 12.9297C21.9184 13.3377 21.4236 13.5417 20.8333 13.5417ZM12.5 12.5C11.6319 12.5 10.8941 12.1962 10.2865 11.5885C9.67882 10.9809 9.375 10.2431 9.375 9.375C9.375 8.48958 9.67882 7.7474 10.2865 7.14844C10.8941 6.54948 11.6319 6.25 12.5 6.25C13.3854 6.25 14.1276 6.54948 14.7266 7.14844C15.3255 7.7474 15.625 8.48958 15.625 9.375C15.625 10.2431 15.3255 10.9809 14.7266 11.5885C14.1276 12.1962 13.3854 12.5 12.5 12.5Z" fill="url(#paint0_linear_468_1960)"/>
</g>
<defs>
<linearGradient id="paint0_linear_468_1960" x1="1.25" y1="6.58845" x2="18.4651" y2="24.6444" gradientUnits="userSpaceOnUse">
<stop stop-color="#F4BCF7"/>
<stop offset="1" stop-color="#B6E9FF"/>
<stop offset="1" stop-color="#B6E9FF"/>
</linearGradient>
</defs>
</svg>
