<svg width="24" height="24" viewBox="0 0 24 24" fill="none" xmlns="http://www.w3.org/2000/svg">
<mask id="mask0_197_556" style="mask-type:alpha" maskUnits="userSpaceOnUse" x="0" y="0" width="24" height="24">
<rect width="24" height="24" fill="#D9D9D9"/>
</mask>
<g mask="url(#mask0_197_556)">
<path d="M19.3089 20L13.1944 13.8855C12.7061 14.3011 12.1446 14.6229 11.5099 14.8507C10.8751 15.0786 10.2372 15.1925 9.59624 15.1925C8.03217 15.1925 6.70845 14.6511 5.62508 13.5683C4.54169 12.4855 4 11.1625 4 9.5993C4 8.03608 4.54139 6.71205 5.62418 5.62723C6.70696 4.54241 8.02997 4 9.59319 4C11.1564 4 12.4804 4.54169 13.5652 5.62506C14.6501 6.70843 15.1925 8.03216 15.1925 9.59625C15.1925 10.2748 15.0723 10.9314 14.8319 11.5662C14.5915 12.2009 14.2761 12.7437 13.8854 13.1944L20 19.3089L19.3089 20ZM9.59624 14.216C10.892 14.216 11.9859 13.77 12.8779 12.8779C13.7699 11.9859 14.216 10.892 14.216 9.59625C14.216 8.30048 13.7699 7.20658 12.8779 6.31456C11.9859 5.42254 10.892 4.97653 9.59624 4.97653C8.30047 4.97653 7.20658 5.42254 6.31456 6.31456C5.42255 7.20658 4.97655 8.30048 4.97655 9.59625C4.97655 10.892 5.42255 11.9859 6.31456 12.8779C7.20658 13.77 8.30047 14.216 9.59624 14.216Z" fill="#C8C8C8"/>
</g>
</svg>
