<svg width="47" height="11" viewBox="0 0 47 11" fill="none" xmlns="http://www.w3.org/2000/svg">
<path d="M5.436 2.26V8.572C5.436 9.256 5.46 9.736 5.532 10.252H3.324C3.396 9.736 3.42 9.268 3.42 8.572V2.26H1.896C1.176 2.26 0.66 2.284 0.18 2.344V0.412C0.66 0.472 1.188 0.495999 1.884 0.495999H6.876C7.716 0.495999 8.196 0.472 8.688 0.412V2.344C8.196 2.284 7.74 2.26 6.876 2.26H5.436ZM16.0758 10.252H14.3838C14.3358 9.952 14.2158 9.496 14.0598 8.98L13.2198 6.328C13.1358 6.088 13.0638 5.836 13.0278 5.656C12.9438 5.968 12.8838 6.184 12.8358 6.328L11.9838 8.98C11.8398 9.448 11.6958 9.976 11.6478 10.252H9.96778C9.88378 9.856 9.82378 9.616 9.61978 8.98L8.28778 4.672C8.10778 4.084 7.96378 3.652 7.77178 3.148H9.91978C9.95578 3.544 10.0518 4.048 10.1838 4.576L10.7718 6.82C10.7838 6.868 10.7958 6.952 10.8198 7.072C10.8438 7.132 10.8558 7.204 10.8678 7.252C10.9038 7.432 10.9158 7.456 10.9398 7.6C11.0838 7.072 11.1198 6.976 11.1678 6.82L11.9478 4.36C12.1038 3.892 12.2238 3.424 12.2718 3.148H13.7718C13.8198 3.412 13.9518 3.892 14.0958 4.348L14.8998 6.904C14.9358 7.024 14.9838 7.18 15.0918 7.612C15.1158 7.516 15.1158 7.516 15.1518 7.336C15.1638 7.3 15.2478 6.916 15.2598 6.88L15.8478 4.576C15.9918 4.048 16.0758 3.544 16.0998 3.148H18.2598C17.9718 3.928 17.9718 3.94 17.7438 4.672L16.4118 8.98C16.2078 9.616 16.1358 9.916 16.0758 10.252ZM19.0716 0.495999H21.1596V2.152H19.0716V0.495999ZM19.0476 3.148H21.1716C21.0996 3.604 21.0756 4.048 21.0756 4.84V8.56C21.0756 9.268 21.0996 9.748 21.1716 10.252H19.0476C19.1196 9.652 19.1436 9.28 19.1436 8.572V4.828C19.1436 4.096 19.1196 3.64 19.0476 3.148ZM23.3795 1.288H25.4435C25.3835 1.744 25.3475 2.272 25.3475 2.836V3.148H25.8155C26.3675 3.148 26.6435 3.136 27.0155 3.088V4.768C26.6195 4.708 26.3915 4.696 25.8755 4.696H25.3475V8.08C25.3475 8.644 25.5515 8.848 26.1155 8.848C26.4395 8.848 26.6795 8.788 26.9915 8.608L27.1835 10.18C26.7035 10.348 26.2715 10.42 25.6475 10.42C24.0995 10.42 23.4755 9.892 23.4755 8.56V4.696H23.0075C22.5635 4.696 22.3235 4.708 21.9515 4.768V3.076C22.2995 3.136 22.5515 3.148 23.0315 3.148H23.4755V2.836C23.4755 2.236 23.4515 1.84 23.3795 1.288ZM28.8404 1.288H30.9044C30.8444 1.744 30.8084 2.272 30.8084 2.836V3.148H31.2764C31.8284 3.148 32.1044 3.136 32.4764 3.088V4.768C32.0804 4.708 31.8524 4.696 31.3364 4.696H30.8084V8.08C30.8084 8.644 31.0124 8.848 31.5764 8.848C31.9004 8.848 32.1404 8.788 32.4524 8.608L32.6444 10.18C32.1644 10.348 31.7324 10.42 31.1084 10.42C29.5604 10.42 28.9364 9.892 28.9364 8.56V4.696H28.4684C28.0244 4.696 27.7844 4.708 27.4124 4.768V3.076C27.7604 3.136 28.0124 3.148 28.4924 3.148H28.9364V2.836C28.9364 2.236 28.9124 1.84 28.8404 1.288ZM40.3373 7.216H35.0573C35.1173 7.78 35.2253 8.08 35.4653 8.38C35.7893 8.776 36.2573 8.98 36.8333 8.98C37.6733 8.98 38.2493 8.584 38.5013 7.852L40.2413 8.368C39.9773 8.944 39.7973 9.22 39.4733 9.532C38.8373 10.168 37.9253 10.504 36.8333 10.504C35.7533 10.504 34.8533 10.18 34.2293 9.556C33.5453 8.884 33.1733 7.864 33.1733 6.7C33.1733 4.42 34.6013 2.908 36.7613 2.908C38.3333 2.908 39.4733 3.676 39.9893 5.056C40.2053 5.644 40.2653 6.028 40.3133 6.928C40.3133 6.976 40.3133 6.988 40.3373 7.216ZM35.0933 5.824H38.4173C38.3453 5.44 38.2613 5.224 38.0813 4.984C37.7933 4.612 37.3373 4.408 36.7853 4.408C35.8973 4.408 35.3213 4.888 35.0933 5.824ZM46.8549 3.148L46.3629 4.996C45.8589 4.828 45.6309 4.792 45.2469 4.792C44.6109 4.792 44.1429 4.972 43.8069 5.356C43.5549 5.656 43.4469 5.932 43.3869 6.496V8.572C43.3869 9.292 43.4109 9.736 43.4709 10.252H41.4069C41.4789 9.652 41.5029 9.28 41.5029 8.572V4.828C41.5029 4.024 41.4789 3.652 41.4069 3.148H43.3869V4.132C43.8909 3.376 44.6589 3.016 45.7269 3.016C46.0869 3.016 46.3389 3.04 46.8549 3.148Z" fill="#47C8FF"/>
</svg>
