<svg width="22" height="22" viewBox="0 0 22 22" fill="none" xmlns="http://www.w3.org/2000/svg">
<path d="M20.1667 3.66577C19.4517 4.09019 18.0171 4.6686 17.1737 4.83544C17.149 4.84185 17.1288 4.8501 17.105 4.85652C16.3597 4.12135 15.3386 3.66577 14.2083 3.66577C11.9304 3.66577 10.0833 5.51285 10.0833 7.79077C10.0833 7.91085 10.0732 8.13177 10.0833 8.2491C7.00975 8.2491 4.67042 6.63944 2.99292 4.58244C2.8105 5.04077 2.73075 5.76494 2.73075 6.4451C2.73075 7.72935 3.7345 8.99069 5.29742 9.7726C5.00958 9.84685 4.69242 9.90002 4.36242 9.90002C3.82983 9.90002 3.26608 9.75977 2.75 9.33444C2.75 9.35002 2.75 9.36469 2.75 9.38119C2.75 11.176 4.65483 12.3979 6.34883 12.738C6.00508 12.9406 5.31208 12.9608 4.97383 12.9608C4.7355 12.9608 3.89217 12.8517 3.66667 12.8095C4.13783 14.2808 5.83733 15.1076 7.45708 15.1369C6.19025 16.1306 5.31117 16.4991 2.717 16.4991H1.83333C3.47233 17.5496 5.55958 18.3334 7.65142 18.3334C14.4622 18.3334 18.3333 13.1423 18.3333 8.2491C18.3333 8.17027 18.3315 8.00527 18.3288 7.83935C18.3288 7.82285 18.3333 7.80727 18.3333 7.79077C18.3333 7.76602 18.326 7.74219 18.326 7.71744C18.3232 7.59277 18.3205 7.47635 18.3177 7.41585C19.0419 6.89335 19.6698 6.2416 20.1667 5.4991C19.5021 5.79427 18.7889 5.99227 18.04 6.0821C18.8045 5.62377 19.8907 4.5311 20.1667 3.66577Z" fill="#47C8FF"/>
</svg>
